<svg width="29" height="31" viewBox="0 0 29 31" fill="none" xmlns="http://www.w3.org/2000/svg">
<path d="M10.6452 25.6415C3.84524 27.6815 3.84524 22.2415 1.12524 21.5615M20.1652 29.7215V24.4583C20.2163 23.8098 20.1286 23.1578 19.9082 22.5458C19.6878 21.9338 19.3396 21.3757 18.8868 20.9087C23.1572 20.4327 27.6452 18.8143 27.6452 11.3887C27.6449 9.48986 26.9145 7.66388 25.6052 6.28865C26.2252 4.62741 26.1814 2.7912 25.4828 1.16144C25.4828 1.16144 23.878 0.685438 20.1652 3.17424C17.0481 2.32944 13.7624 2.32944 10.6452 3.17424C6.93244 0.685438 5.32764 1.16144 5.32764 1.16144C4.62912 2.7912 4.58528 4.62741 5.20524 6.28865C3.88622 7.67408 3.15507 9.51656 3.16524 11.4295C3.16524 18.8007 7.65324 20.4191 11.9236 20.9495C11.4762 21.4118 11.1311 21.9632 10.9109 22.5678C10.6906 23.1723 10.6001 23.8164 10.6452 24.4583V29.7215" stroke="#FFCF33" stroke-width="2.25" stroke-linecap="round" stroke-linejoin="round"/>
</svg>
